<svg width="551" height="514" xmlns="http://www.w3.org/2000/svg" style="vector-effect: non-scaling-stroke;" stroke="null">

 <g stroke="null">
  <title stroke="null">Layer 1</title>
  <g stroke="null" id="svg_6">
   <g stroke="null" id="svg_4" fill="#000000" transform="translate(0 228) scale(0.1 -0.1)">
    <path stroke="null" fill="#8c0202" id="svg_5" d="m489.32853,2230.41405c-191.02597,-60.02512 -353.95988,-208.78303 -424.19001,-381.02903c-47.75649,-117.44045 -53.3749,-224.44176 -61.80252,-978.67045c-8.42762,-751.61891 -2.80921,-863.83978 39.32888,-981.28024c67.42093,-180.07536 210.6904,-328.83327 390.47955,-404.51712c143.26948,-60.02512 171.36153,-62.63491 837.14321,-62.63491c379.24273,0 792.19592,-2.60979 918.61016,-7.82936l230.35484,-5.21958l8.42762,-892.54745c8.42762,-861.23 11.23682,-900.37681 70.23013,-1002.15854c89.89457,-156.58727 264.06531,-289.68645 441.04525,-336.66264c132.03265,-36.53703 300.58498,-41.75661 1104.01772,-33.92724c912.99175,7.82936 955.12983,10.43915 1064.68884,65.2447c165.74312,80.90342 283.72974,206.17324 348.34147,365.3703c50.5657,130.48939 56.18411,203.56345 56.18411,983.89003c0,897.76703 -11.23682,996.93897 -143.26948,1174.40454c-33.71046,46.97618 -103.9406,112.22088 -157.3155,146.14812c-174.17073,112.22088 -353.95988,130.48939 -1264.14243,130.48939l-848.38003,0l-8.42762,882.1083c-8.42762,861.23 -8.42762,882.1083 -73.03934,1002.15854c-84.27616,159.19706 -247.21007,287.07667 -429.80843,341.88221c-120.79583,36.53703 -283.72974,44.36639 -1047.83361,44.36639c-800.62354,-2.60979 -918.61016,-7.82936 -1050.64282,-49.58597zm1887.78602,-634.17845c39.32888,-49.58597 44.94729,-169.63621 44.94729,-795.9853l0,-738.56997l-870.85367,0l-870.85367,0l0,795.9853l0,795.9853l825.90639,0c823.09718,0 828.71559,0 870.85367,-57.41533zm2432.77187,-3035.18329l0,-795.9853l-758.48546,0c-494.42015,0 -778.14989,10.43915 -823.09718,28.70767c-123.60504,52.19576 -132.03265,114.83067 -132.03265,858.62021l0,704.64272l856.80764,0l856.80764,0l0,-795.9853z"/>
   </g>
  </g>
 </g>
</svg>